<?xml version="1.0" encoding="UTF-8" standalone="no"?>
<svg
   width="188"
   height="234"
   viewBox="0 0 188 234"
   version="1.1"
   id="svg10"
   sodipodi:docname="ion-file-glyph.svg"
   inkscape:version="1.4.3 (0d15f75, 2025-12-25)"
   xmlns:inkscape="http://www.inkscape.org/namespaces/inkscape"
   xmlns:sodipodi="http://sodipodi.sourceforge.net/DTD/sodipodi-0.dtd"
   xmlns="http://www.w3.org/2000/svg"
   xmlns:svg="http://www.w3.org/2000/svg">
  <defs
     id="defs10" />
  <sodipodi:namedview
     id="namedview10"
     pagecolor="#ffffff"
     bordercolor="#000000"
     borderopacity="0.25"
     inkscape:showpageshadow="2"
     inkscape:pageopacity="0.0"
     inkscape:pagecheckerboard="0"
     inkscape:deskcolor="#d1d1d1"
     inkscape:zoom="2.7312887"
     inkscape:cx="94.094776"
     inkscape:cy="127.41238"
     inkscape:window-width="1512"
     inkscape:window-height="921"
     inkscape:window-x="0"
     inkscape:window-y="33"
     inkscape:window-maximized="1"
     inkscape:current-layer="svg10" />
  <title
     id="title1">.ion file</title>
  <path
     d="M0 0h124.1L188 56.2V234H0Z"
     fill="#16C272"
     id="path1" />
  <path
     d="M124.1 0 188 56.2h-63.9Z"
     fill="#0E9E59"
     id="path2" />
  <g
     stroke="#0b2017"
     stroke-width="5"
     stroke-linecap="round"
     fill="none"
     id="g9"
     transform="translate(-5.6603669,-104.90543)">
    <path
       d="M 118,193.5 V 184 a 6.5,6.5 0 0 1 13,0 v 9.5"
       id="path8" />
    <circle
       cx="97.5"
       cy="186"
       r="7.5"
       id="circle8" />
    <path
       d="m 74,193.5 v -15"
       id="path9" />
  </g>
  <circle
     cx="68.339645"
     cy="64.094566"
     r="3"
     fill="#0b2017"
     id="circle9" />
  <circle
     cx="54.839645"
     cy="85.594566"
     r="3"
     fill="#0b2017"
     id="circle10" />
  <rect
     x="63.431213"
     y="108.53441"
     width="59.123268"
     height="5.1001048"
     rx="2.5500524"
     fill="#16c272"
     id="rect2-0"
     style="fill:#0b2017;fill-opacity:1;stroke-width:0.850017" />
  <rect
     x="72.276627"
     y="123.97891"
     width="41.432446"
     height="5.1001048"
     rx="2.5500524"
     fill="#16c272"
     id="rect2"
     style="fill:#0b2017;fill-opacity:1;stroke-width:0.850017" />
  <g
     id="g9-1"
     transform="matrix(0.79400437,0,0,0.85001744,14.212762,49.134958)">
    <path
       id="path2-3"
       d="m 80.217575,99.13485 c -3.313708,0 -5.998816,2.68629 -5.998816,6 v 69 c 0,3.31371 2.685108,6 5.998816,6 h 38.000165 c 3.31371,0 6.00091,-2.68629 6.00091,-6 v -69 c 0,-3.31371 -2.6872,-6 -6.00091,-6 z m 2.494454,7.63477 h 0.0084 c 1.566387,0 2.826908,1.25978 2.826908,2.82617 v 61.20117 c 0,1.56639 -1.260521,2.82812 -2.826908,2.82812 h -0.0084 c -1.566388,0 -2.826908,-1.26173 -2.826908,-2.82812 v -61.20117 c 0,-1.56639 1.26052,-2.82617 2.826908,-2.82617 z m 11.000268,0 h 0.01045 c 1.566388,0 2.826908,1.25978 2.826908,2.82617 v 61.20117 c 0,1.56639 -1.26052,2.82812 -2.826908,2.82812 h -0.01045 c -1.566387,0 -2.826908,-1.26173 -2.826908,-2.82812 v -61.20117 c 0,-1.56639 1.260521,-2.82617 2.826908,-2.82617 z m 11.002363,0 h 0.008 c 1.56639,0 2.82691,1.25978 2.82691,2.82617 v 61.20117 c 0,1.56639 -1.26052,2.82812 -2.82691,2.82812 h -0.008 c -1.56639,0 -2.82691,-1.26173 -2.82691,-2.82812 v -61.20117 c 0,-1.56639 1.26052,-2.82617 2.82691,-2.82617 z m 11.00027,0 h 0.008 c 1.56639,0 2.829,1.25978 2.829,2.82617 v 61.20117 c 0,1.56639 -1.26261,2.82812 -2.829,2.82812 h -0.008 c -1.56639,0 -2.82691,-1.26173 -2.82691,-2.82812 v -61.20117 c 0,-1.56639 1.26052,-2.82617 2.82691,-2.82617 z"
       style="fill:#0b2017;fill-opacity:1" />
  </g>
  <rect
     x="68.257889"
     y="206.34383"
     width="49.46991"
     height="4.7422891"
     rx="3.4000697"
     fill="#16c272"
     id="rect3"
     style="fill:#0b2017;fill-opacity:1;stroke-width:0.850017" />
  <rect
     x="64.720726"
     y="213.49054"
     width="56.544243"
     height="4.7422943"
     rx="3.4000697"
     fill="#16c272"
     id="rect3-9"
     style="fill:#0b2017;fill-opacity:1;stroke-width:0.850017" />
  <g
     transform="matrix(-1.1069491,0,0,1.1069491,134.09385,107.84126)"
     id="g3"
     style="fill:none;fill-opacity:1;stroke:#000000;stroke-width:4.306;stroke-dasharray:none;stroke-opacity:1">
    <path
       d="m 4.4373364,13.1856 c 0,-6.1999969 9.3000006,-6.1999969 9.3000006,0 0,4.142139 -3.357866,7.499997 -7.5000006,7.499997 -4.1421355,0 -7.5,-3.357858 -7.5,-7.499997 0,-5.7989934 4.7010103,-10.4999946 10.5,-10.4999946 5.7989906,0 16.8877556,7.5133376 27.8926476,7.5133376 11.004892,0 22.093657,-7.5133376 27.892647,-7.5133376 5.79899,0 10.5,4.7010012 10.5,10.4999946 0,4.142139 -3.357864,7.499997 -7.5,7.499997 -4.142136,0 -7.5,-3.357858 -7.5,-7.499997 0,-6.1999969 9.3,-6.1999969 9.3,0"
       fill="none"
       stroke="#16c272"
       stroke-width="2.6"
       stroke-linecap="round"
       id="path3-2"
       style="fill:none;fill-opacity:1;stroke:#000000;stroke-width:4.306;stroke-dasharray:none;stroke-opacity:1"
       sodipodi:nodetypes="csssszssssc" />
  </g>
</svg>
